<svg xmlns="http://www.w3.org/2000/svg" width="363.21635614607396" height="275.31799795872405" viewBox="0 0 500 379" version="1.1"><path d="M 188.500 32.098 C 155.500 49.729, 122.401 67.383, 114.948 71.328 C 44.092 108.827, 0.089 132.652, 0.318 133.393 C 0.576 134.222, 248.706 267, 249.999 267 C 250.698 267, 495.500 136.516, 498.750 134.411 C 500.886 133.028, 502.101 130.202, 500.001 131.499 C 499.222 131.981, 441.383 101.702, 383.500 70.511 C 331.026 42.234, 250.996 0.005, 249.913 0.020 C 249.136 0.031, 221.500 14.466, 188.500 32.098 M 236.867 25.774 L 224.234 32.500 245.367 32.548 C 257.642 32.575, 268.981 33.098, 272.419 33.795 C 275.675 34.455, 278.497 34.837, 278.690 34.644 C 279.024 34.310, 250.764 18.973, 249.908 19.024 C 249.684 19.038, 243.815 22.075, 236.867 25.774 M 312.068 53.629 C 316.170 58.216, 317.811 61.378, 320.134 69.180 C 322.222 76.191, 322.344 78.930, 323.022 134 C 323.608 181.560, 324.009 192.692, 325.343 198.395 C 326.230 202.187, 327.170 205.503, 327.431 205.764 C 327.692 206.025, 343.114 198.125, 361.703 188.208 C 405.739 164.716, 411.021 161.902, 439.810 146.591 C 453.160 139.491, 463.726 133.336, 463.291 132.913 C 462.621 132.262, 323.242 57.714, 313 52.529 L 309.500 50.758 312.068 53.629 M 106 95.594 C 68.325 115.692, 37.151 132.477, 36.725 132.893 C 36.074 133.529, 54.090 143.443, 103.500 169.636 C 107.900 171.969, 124.100 180.616, 139.500 188.852 C 154.900 197.088, 167.582 203.745, 167.683 203.647 C 167.784 203.548, 166.320 200.324, 164.430 196.483 C 154.383 176.067, 158.184 150.087, 173.500 134.487 C 183.236 124.570, 198.043 118.635, 228.221 112.552 C 247.608 108.644, 267.074 103.835, 271.304 101.908 C 273.670 100.829, 274 100.110, 274 96.021 C 274 93.459, 273.314 89.053, 272.475 86.229 C 269.034 74.641, 262.640 71.500, 242.500 71.501 C 230.268 71.501, 229.193 71.663, 224.312 74.236 C 218.659 77.216, 215.647 80.657, 211.576 88.788 C 209.061 93.810, 208.765 94.050, 205.714 93.536 C 192.029 91.232, 164.625 85.959, 164.218 85.551 C 163.352 84.686, 169 70.382, 172.508 64.558 C 174.348 61.501, 175.549 59.012, 175.177 59.026 C 174.805 59.040, 143.675 75.496, 106 95.594 M 257.500 138.342 C 222.344 146.784, 217.112 148.852, 212.228 156.232 C 209.937 159.694, 209.506 161.407, 209.537 166.927 C 209.595 177.220, 214.444 184.593, 224 188.919 C 232.532 192.781, 247.246 191.109, 257 185.169 C 261.302 182.548, 268.086 175.652, 269.998 171.956 C 272.480 167.156, 274.185 154.427, 273.809 143.500 L 273.500 134.500 257.500 138.342 M 270.500 209.573 C 255.602 221.154, 242.875 225.871, 224.210 226.729 L 211.920 227.294 215.945 229.581 C 218.158 230.838, 226.164 235.112, 233.735 239.078 C 241.306 243.045, 248.063 246.730, 248.750 247.267 C 249.560 247.901, 250.440 247.903, 251.250 247.272 C 251.938 246.737, 258.350 243.221, 265.500 239.459 C 272.650 235.697, 282.550 230.463, 287.500 227.828 L 296.500 223.038 290.282 223.019 L 284.064 223 281.532 214.698 C 280.139 210.133, 279 205.858, 279 205.198 C 279 203.260, 277.879 203.837, 270.500 209.573 M 278.309 281.779 L 265.118 282.057 246.309 302.233 L 227.500 322.408 227.229 302.204 L 226.959 282 216.479 282 L 206 282 206 330.500 L 206 379 216.500 379 L 227 379 227 364.225 L 227 349.450 234.430 342.069 L 241.861 334.688 244.492 339.094 C 245.939 341.517, 251.834 351.488, 257.591 361.250 L 268.060 379 281.491 379 L 294.922 379 276.309 350.750 C 266.071 335.212, 257.485 321.705, 257.227 320.733 C 256.892 319.472, 261.963 313.713, 274.961 300.593 C 284.973 290.488, 292.790 282.058, 292.333 281.860 C 291.875 281.662, 285.564 281.625, 278.309 281.779 M 52.085 284.217 C 51.595 285.473, 43.909 305.175, 35.004 328 C 26.100 350.825, 17.999 371.637, 17.003 374.250 L 15.192 379 26.346 378.994 L 37.500 378.989 41.077 368.744 L 44.654 358.500 64.059 358.500 L 83.465 358.500 87.381 368.750 L 91.297 379 102.525 379 L 113.752 379 103.710 353.750 C 98.187 339.863, 89.554 318.150, 84.527 305.500 L 75.386 282.500 64.181 282.217 C 53.317 281.943, 52.948 282.004, 52.085 284.217 M 123.667 282.667 C 123.300 283.033, 123 304.858, 123 331.167 L 123 379 158 379 L 193 379 193 370.500 L 193 362 168.500 362 L 144 362 144 322 L 144 282 134.167 282 C 128.758 282, 124.033 282.300, 123.667 282.667 M 304 330.500 L 304 379 341.540 379 L 379.081 379 378.790 370.750 L 378.500 362.500 351.750 362.234 L 325 361.967 325 349.484 L 325 337 349 337 L 373 337 373 328 L 373 319 349 319 L 325 319 325 309.017 L 325 299.034 350.750 298.767 L 376.500 298.500 376.790 290.250 L 377.081 282 340.540 282 L 304 282 304 330.500 M 394 330.474 L 394 379 403.500 379 L 413 379 413.098 343.750 L 413.197 308.500 421.938 343.500 L 430.679 378.500 441.022 378.500 L 451.365 378.500 459.932 344.067 L 468.500 309.634 468.763 344.317 L 469.026 379 478.513 379 L 488 379 488 330.500 L 488 282 472.725 282 L 457.450 282 455.849 288.750 C 452.999 300.768, 441.831 343.488, 441.433 343.893 C 440.900 344.436, 440.581 343.397, 436.405 327.500 C 434.382 319.800, 430.863 306.525, 428.585 298 L 424.443 282.500 409.221 282.224 L 394 281.948 394 330.474 M 58 322.301 C 54.975 330.654, 52.355 338.053, 52.177 338.744 C 51.930 339.700, 54.733 340, 63.927 340 C 70.567 340, 76 339.797, 76 339.549 C 76 338.581, 64.748 308.459, 64.143 307.806 C 63.789 307.425, 61.025 313.947, 58 322.301" stroke="none" fill="#144497" fill-rule="evenodd"/></svg>